<svg width="251" height="85" viewBox="0 0 251 85" fill="none" xmlns="http://www.w3.org/2000/svg">
<rect x="0.209595" width="250" height="48" rx="6" fill="#256EF4"/>
<path d="M17.3658 30V18.6875H21.5065C23.9205 18.6875 25.0846 19.9766 25.0846 21.6562C25.0846 23.0703 24.2174 23.7812 23.1783 24.0469V24.1562C24.3033 24.2188 25.5221 25.2031 25.5221 26.9531C25.5221 28.6875 24.3346 30 21.694 30H17.3658ZM19.0846 28.5312H21.5377C23.1627 28.5234 23.819 27.8125 23.819 26.875C23.819 25.7891 22.9596 24.9219 21.6002 24.9219H19.0846V28.5312ZM19.0846 23.5781H21.3658C22.5065 23.5703 23.3971 22.8828 23.3971 21.7969C23.3971 20.8594 22.7487 20.1562 21.3971 20.1562H19.0846V23.5781ZM32.3158 26.4688V21.5156H33.9721V30H32.3471V28.5312H32.2533C31.8627 29.4375 30.9955 30.1094 29.7221 30.1094C28.0815 30.1094 26.9252 29.0078 26.9252 26.9062V21.5156H28.5971V26.7031C28.5971 27.8594 29.3002 28.5938 30.3158 28.5938C31.2455 28.5938 32.3158 27.9141 32.3158 26.4688ZM39.6721 21.5156V22.8438H37.9377V27.5C37.9455 28.4609 38.4143 28.6328 38.9533 28.6406C39.1955 28.6406 39.5627 28.6172 39.7971 28.5938V30.0469C39.5705 30.0781 39.2112 30.1094 38.7502 30.1094C37.4455 30.1094 36.2658 29.3906 36.2815 27.8438V22.8438H35.0315V21.5156H36.2815V19.4844H37.9377V21.5156H39.6721ZM44.9658 21.5156V22.8438H43.2315V27.5C43.2393 28.4609 43.708 28.6328 44.2471 28.6406C44.4893 28.6406 44.8565 28.6172 45.0908 28.5938V30.0469C44.8643 30.0781 44.5049 30.1094 44.044 30.1094C42.7393 30.1094 41.5596 29.3906 41.5752 27.8438V22.8438H40.3252V21.5156H41.5752V19.4844H43.2315V21.5156H44.9658ZM49.7908 30.1719C47.3846 30.1719 45.8143 28.4219 45.8221 25.7969C45.8143 23.1562 47.3846 21.4062 49.7908 21.4062C52.1815 21.4062 53.744 23.1562 53.744 25.7969C53.744 28.4219 52.1815 30.1719 49.7908 30.1719ZM47.494 25.7969C47.494 27.4141 48.2362 28.7812 49.7908 28.7812C51.3221 28.7812 52.0565 27.4141 52.0565 25.7969C52.0565 24.1719 51.3221 22.7891 49.7908 22.7812C48.2362 22.7891 47.494 24.1719 47.494 25.7969ZM56.7565 24.9688V30H55.0846V21.5156H56.694V22.9062H56.7877C57.1862 21.9922 58.0221 21.4062 59.2877 21.4062C61.0299 21.4062 62.1862 22.5078 62.1783 24.6094V30H60.5221V24.8125C60.5143 23.5781 59.8502 22.8438 58.7252 22.8438C57.5768 22.8438 56.7565 23.6172 56.7565 24.9688Z" fill="white"/>
<path d="M229.21 19L234.21 24L229.21 29" stroke="white" stroke-width="1.5" stroke-linecap="round" stroke-linejoin="round"/>
<path d="M225.814 35.3333C224.341 35.3333 223.148 36.5272 223.148 38C223.148 39.4728 224.341 40.6667 225.814 40.6667C227.287 40.6667 228.481 39.4728 228.481 38C228.481 36.5272 227.287 35.3333 225.814 35.3333ZM225.314 38L225.314 61.4963L226.314 61.4963L226.314 38L225.314 38Z" fill="black"/>
<rect x="213.814" y="60.4963" width="24" height="24" rx="12" fill="#1F1F1F"/>
<path d="M222.086 75.5923C222.673 77.1283 223.766 77.8963 225.366 77.8963C226.284 77.8963 227.009 77.6829 227.542 77.2563C228.086 76.8189 228.358 76.2536 228.358 75.5603C228.358 74.8456 228.076 74.2589 227.51 73.8003C226.956 73.3416 226.161 73.1123 225.126 73.1123H223.494V71.7203H225.126C226.065 71.7203 226.785 71.5123 227.286 71.0963C227.798 70.6803 228.054 70.1363 228.054 69.4643C228.054 68.8029 227.809 68.2856 227.318 67.9123C226.828 67.5283 226.166 67.3363 225.334 67.3363C223.99 67.3363 223.036 68.0349 222.47 69.4323L221.03 68.8883C221.361 68.0136 221.884 67.2989 222.598 66.7443C223.313 66.1789 224.225 65.8963 225.334 65.8963C226.166 65.8963 226.902 66.0403 227.542 66.3283C228.193 66.6056 228.7 67.0056 229.062 67.5283C229.436 68.0509 229.622 68.6696 229.622 69.3843C229.622 70.1416 229.425 70.7763 229.03 71.2883C228.646 71.8003 228.14 72.1736 227.51 72.4083C228.236 72.6323 228.822 73.0269 229.27 73.5923C229.718 74.1576 229.942 74.8349 229.942 75.6243C229.942 76.3603 229.75 77.0056 229.366 77.5603C228.982 78.1256 228.444 78.5629 227.75 78.8723C227.057 79.1816 226.262 79.3363 225.366 79.3363C224.129 79.3363 223.116 79.0376 222.326 78.4403C221.537 77.8429 220.982 77.0643 220.662 76.1043L222.086 75.5923Z" fill="white"/>
</svg>
