<svg width="251" height="86" viewBox="0 0 251 86" fill="none" xmlns="http://www.w3.org/2000/svg">
<rect x="0.604736" width="250" height="48" rx="6" fill="#256EF4"/>
<path d="M90.9937 26.8483L90.9937 30.1267C90.9937 30.6235 91.181 31.1 91.5144 31.4513C91.8477 31.8026 92.2999 32 92.7714 32H103.438C103.91 32 104.362 31.8026 104.695 31.4513C105.029 31.1 105.216 30.6235 105.216 30.1267V26.8483M98.1058 16V26.6155M98.1058 26.6155L102.169 22.5594M98.1058 26.6155L94.0423 22.5594" stroke="white" stroke-width="1.5" stroke-linecap="round" stroke-linejoin="round"/>
<path d="M114.372 30V18.6875H118.513C120.927 18.6875 122.091 19.9766 122.091 21.6562C122.091 23.0703 121.224 23.7812 120.185 24.0469V24.1562C121.31 24.2188 122.528 25.2031 122.528 26.9531C122.528 28.6875 121.341 30 118.7 30H114.372ZM116.091 28.5312H118.544C120.169 28.5234 120.825 27.8125 120.825 26.875C120.825 25.7891 119.966 24.9219 118.606 24.9219H116.091V28.5312ZM116.091 23.5781H118.372C119.513 23.5703 120.403 22.8828 120.403 21.7969C120.403 20.8594 119.755 20.1562 118.403 20.1562H116.091V23.5781ZM129.322 26.4688V21.5156H130.978V30H129.353V28.5312H129.26C128.869 29.4375 128.002 30.1094 126.728 30.1094C125.088 30.1094 123.931 29.0078 123.931 26.9062V21.5156H125.603V26.7031C125.603 27.8594 126.306 28.5938 127.322 28.5938C128.252 28.5938 129.322 27.9141 129.322 26.4688ZM136.678 21.5156V22.8438H134.944V27.5C134.952 28.4609 135.421 28.6328 135.96 28.6406C136.202 28.6406 136.569 28.6172 136.803 28.5938V30.0469C136.577 30.0781 136.217 30.1094 135.756 30.1094C134.452 30.1094 133.272 29.3906 133.288 27.8438V22.8438H132.038V21.5156H133.288V19.4844H134.944V21.5156H136.678ZM141.972 21.5156V22.8438H140.238V27.5C140.246 28.4609 140.714 28.6328 141.253 28.6406C141.496 28.6406 141.863 28.6172 142.097 28.5938V30.0469C141.871 30.0781 141.511 30.1094 141.05 30.1094C139.746 30.1094 138.566 29.3906 138.581 27.8438V22.8438H137.331V21.5156H138.581V19.4844H140.238V21.5156H141.972ZM146.797 30.1719C144.391 30.1719 142.821 28.4219 142.828 25.7969C142.821 23.1562 144.391 21.4062 146.797 21.4062C149.188 21.4062 150.75 23.1562 150.75 25.7969C150.75 28.4219 149.188 30.1719 146.797 30.1719ZM144.5 25.7969C144.5 27.4141 145.242 28.7812 146.797 28.7812C148.328 28.7812 149.063 27.4141 149.063 25.7969C149.063 24.1719 148.328 22.7891 146.797 22.7812C145.242 22.7891 144.5 24.1719 144.5 25.7969ZM153.763 24.9688V30H152.091V21.5156H153.7V22.9062H153.794C154.192 21.9922 155.028 21.4062 156.294 21.4062C158.036 21.4062 159.192 22.5078 159.185 24.6094V30H157.528V24.8125C157.521 23.5781 156.856 22.8438 155.731 22.8438C154.583 22.8438 153.763 23.6172 153.763 24.9688Z" fill="white"/>
<path d="M127 36.3333C125.527 36.3333 124.333 37.5272 124.333 39C124.333 40.4728 125.527 41.6667 127 41.6667C128.473 41.6667 129.667 40.4728 129.667 39C129.667 37.5272 128.473 36.3333 127 36.3333ZM126.5 39L126.5 62.4963L127.5 62.4963L127.5 39L126.5 39Z" fill="black"/>
<rect x="115" y="61.4963" width="24" height="24" rx="12" fill="#1F1F1F"/>
<path d="M129.864 76.0643H131.864V77.5363H129.864V80.3363H128.28V77.5363H121.768V76.2243L127.72 67.1363H129.864V76.0643ZM128.28 68.9603L123.688 76.0643H128.28V68.9603Z" fill="white"/>
</svg>
