<svg width="309" height="85" viewBox="0 0 309 85" fill="none" xmlns="http://www.w3.org/2000/svg">
<rect x="58.8144" y="37" width="250" height="48" rx="6" fill="#256EF4"/>
<path d="M161.471 67V55.6875H165.611C168.025 55.6875 169.189 56.9766 169.189 58.6562C169.189 60.0703 168.322 60.7812 167.283 61.0469V61.1562C168.408 61.2188 169.627 62.2031 169.627 63.9531C169.627 65.6875 168.439 67 165.799 67H161.471ZM163.189 65.5312H165.643C167.268 65.5234 167.924 64.8125 167.924 63.875C167.924 62.7891 167.064 61.9219 165.705 61.9219H163.189V65.5312ZM163.189 60.5781H165.471C166.611 60.5703 167.502 59.8828 167.502 58.7969C167.502 57.8594 166.853 57.1562 165.502 57.1562H163.189V60.5781ZM176.421 63.4688V58.5156H178.077V67H176.452V65.5312H176.358C175.968 66.4375 175.1 67.1094 173.827 67.1094C172.186 67.1094 171.03 66.0078 171.03 63.9062V58.5156H172.702V63.7031C172.702 64.8594 173.405 65.5938 174.421 65.5938C175.35 65.5938 176.421 64.9141 176.421 63.4688ZM183.777 58.5156V59.8438H182.043V64.5C182.05 65.4609 182.519 65.6328 183.058 65.6406C183.3 65.6406 183.668 65.6172 183.902 65.5938V67.0469C183.675 67.0781 183.316 67.1094 182.855 67.1094C181.55 67.1094 180.371 66.3906 180.386 64.8438V59.8438H179.136V58.5156H180.386V56.4844H182.043V58.5156H183.777ZM189.071 58.5156V59.8438H187.336V64.5C187.344 65.4609 187.813 65.6328 188.352 65.6406C188.594 65.6406 188.961 65.6172 189.196 65.5938V67.0469C188.969 67.0781 188.61 67.1094 188.149 67.1094C186.844 67.1094 185.664 66.3906 185.68 64.8438V59.8438H184.43V58.5156H185.68V56.4844H187.336V58.5156H189.071ZM193.896 67.1719C191.489 67.1719 189.919 65.4219 189.927 62.7969C189.919 60.1562 191.489 58.4062 193.896 58.4062C196.286 58.4062 197.849 60.1562 197.849 62.7969C197.849 65.4219 196.286 67.1719 193.896 67.1719ZM191.599 62.7969C191.599 64.4141 192.341 65.7812 193.896 65.7812C195.427 65.7812 196.161 64.4141 196.161 62.7969C196.161 61.1719 195.427 59.7891 193.896 59.7812C192.341 59.7891 191.599 61.1719 191.599 62.7969ZM200.861 61.9688V67H199.189V58.5156H200.799V59.9062H200.893C201.291 58.9922 202.127 58.4062 203.393 58.4062C205.135 58.4062 206.291 59.5078 206.283 61.6094V67H204.627V61.8125C204.619 60.5781 203.955 59.8438 202.83 59.8438C201.682 59.8438 200.861 60.6172 200.861 61.9688Z" fill="white"/>
<rect x="0.395203" y="49" width="24" height="24" rx="12" fill="#1F1F1F"/>
<path d="M14.2992 67.6H12.6992V56.752L9.7552 59.104L8.8432 57.904L12.9392 54.64H14.2992V67.6Z" fill="white"/>
<path d="M61.4811 61C61.4811 59.5272 60.2872 58.3333 58.8144 58.3333C57.3416 58.3333 56.1477 59.5272 56.1477 61C56.1477 62.4728 57.3416 63.6667 58.8144 63.6667C60.2872 63.6667 61.4811 62.4728 61.4811 61ZM58.8144 60.5L24.3952 60.5V61.5L58.8144 61.5V60.5Z" fill="black"/>
<rect x="170.814" y="0.164612" width="24" height="24" rx="12" fill="#1F1F1F"/>
<path d="M178.37 18.7646V17.5166L183.122 12.7966C183.88 12.0499 184.424 11.4046 184.754 10.8606C185.085 10.3059 185.25 9.73528 185.25 9.14861C185.25 8.48728 185.021 7.96461 184.562 7.58061C184.114 7.19661 183.485 7.00461 182.674 7.00461C181.298 7.00461 180.349 7.86861 179.826 9.59661L178.306 9.22861C178.594 8.18328 179.106 7.31394 179.842 6.62061C180.589 5.91661 181.533 5.56461 182.674 5.56461C183.506 5.56461 184.232 5.70861 184.85 5.99661C185.48 6.27394 185.965 6.67928 186.306 7.21261C186.658 7.74594 186.834 8.36994 186.834 9.08461C186.834 9.90594 186.632 10.6633 186.226 11.3566C185.821 12.0499 185.192 12.8179 184.338 13.6606L180.674 17.2926H187.138V18.7646H178.37Z" fill="white"/>
<path d="M182.814 49.6667C184.287 49.6667 185.481 48.4728 185.481 47C185.481 45.5272 184.287 44.3333 182.814 44.3333C181.342 44.3333 180.148 45.5272 180.148 47C180.148 48.4728 181.342 49.6667 182.814 49.6667ZM183.314 47L183.314 23.1646L182.314 23.1646L182.314 47L183.314 47Z" fill="black"/>
</svg>
