<svg width="37" height="37" viewBox="0 0 37 37" fill="none" xmlns="http://www.w3.org/2000/svg">
<g clip-path="url(#clip0_343_487)">
<path d="M31.2321 9.88094H27.1336V4.93819L22.1982 0H14.7973L9.86182 4.94275V9.91738H4.89452L0 14.8237V22.2355L4.93546 27.1783H14.8018V24.7092H5.95439L2.46545 21.2151V15.8487L5.92255 12.3865H12.3318V5.96774L15.8208 2.47365H21.1792L22.9214 4.21842L24.6181 5.91763C24.6181 5.91763 24.65 5.94952 24.6682 5.96774V12.3546H31.0456C31.9053 13.2156 33.3746 14.687 34.5345 15.8487V21.2151L31.0456 24.7092H22.2027V27.1783H32.0691L37.0046 22.2355V14.8237L32.0691 9.88094H31.2321Z" fill="black"/>
<path d="M19.7327 27.1737V17.2928H17.2673V34.0708L11.7268 28.5222L9.98462 30.2669L16.7032 36.9954C16.8852 36.9909 17.0717 36.9863 17.2673 36.9818C18.0087 36.9636 18.8593 36.9453 19.7327 36.9271C19.9511 36.9271 20.1694 36.918 20.3923 36.9134L27.0245 30.2715L25.2823 28.5267L19.7373 34.0799V27.1692L19.7327 27.1737Z" fill="black"/>
</g>
<defs>
<clipPath id="clip0_343_487">
<rect width="37" height="37" fill="white"/>
</clipPath>
</defs>
</svg>
