<svg width="37" height="37" viewBox="0 0 37 37" fill="none" xmlns="http://www.w3.org/2000/svg">
<g clip-path="url(#clip0_343_471)">
<path d="M34.5345 0H4.93091L0 4.93091V32.0645H37V2.46545L34.5345 0ZM34.5345 29.5991H2.46545V22.1982H34.53V29.5991H34.5345ZM2.46545 19.7327V12.3318H34.53V19.7327H2.46545ZM2.46545 9.86636V5.95439L5.95439 2.46545H34.53V9.86636H2.46545Z" fill="black"/>
<path d="M22.1982 6.16818V7.40091H32.0646V6.16818V4.93091H22.1982V6.16818Z" fill="black"/>
<path d="M22.1982 16.0345V17.2673H32.0646V16.0345V14.8018H22.1982V16.0345Z" fill="black"/>
<path d="M32.0646 25.9009V24.6682H22.1982V25.9009V27.1336H32.0646V25.9009Z" fill="black"/>
<path d="M4.93091 6.16818V7.40091H7.40091V6.16818V4.93091H4.93091V6.16818Z" fill="black"/>
<path d="M4.93091 16.0345V17.2673H7.40091V16.0345V14.8018H4.93091V16.0345Z" fill="black"/>
<path d="M7.40091 25.9009V24.6682H4.93091V25.9009V27.1336H7.40091V25.9009Z" fill="black"/>
<path d="M9.86633 6.16818V7.40091H12.3318V6.16818V4.93091H9.86633V6.16818Z" fill="black"/>
<path d="M9.86633 16.0345V17.2673H12.3318V16.0345V14.8018H9.86633V16.0345Z" fill="black"/>
<path d="M12.3318 25.9009V24.6682H9.86633V25.9009V27.1336H12.3318V25.9009Z" fill="black"/>
<path d="M14.8019 6.16818V7.40091H17.2673V6.16818V4.93091H14.8019V6.16818Z" fill="black"/>
<path d="M14.8019 16.0345V17.2673H17.2673V16.0345V14.8018H14.8019V16.0345Z" fill="black"/>
<path d="M17.2673 25.9009V24.6682H14.8019V25.9009V27.1336H17.2673V25.9009Z" fill="black"/>
<path d="M0 35.7673V37H37V35.7673V34.5345H0V35.7673Z" fill="black"/>
</g>
<defs>
<clipPath id="clip0_343_471">
<rect width="37" height="37" fill="white"/>
</clipPath>
</defs>
</svg>
