<svg width="37" height="37" viewBox="0 0 37 37" fill="none" xmlns="http://www.w3.org/2000/svg">
<g clip-path="url(#clip0_343_465)">
<path d="M27.1759 37L37 27.1336V9.86636L27.1759 0H18.5793H9.98262C9.73803 0 0 9.86636 0 9.86636V27.2928L9.66556 37H27.1759ZM19.8067 34.2662V19.7964H25.9168C25.7582 23.8449 24.866 27.5794 23.3577 30.4224C22.3114 32.3921 21.0613 33.7294 19.8067 34.2662ZM19.8067 17.3264V2.73383C21.0659 3.27059 22.3114 4.60794 23.3577 6.57758C24.8841 9.44787 25.7809 13.2325 25.9213 17.3264H19.8022H19.8067ZM17.3518 2.73383V17.3264H11.2327C11.3776 13.2325 12.2745 9.44787 13.7963 6.57758C14.8426 4.60794 16.0927 3.27059 17.3473 2.73383H17.3518ZM17.3518 19.7964V34.2662C16.0927 33.7294 14.8471 32.3921 13.8008 30.4224C12.2926 27.5794 11.3958 23.8449 11.2418 19.7964H17.3518ZM34.5406 26.1102L26.1568 34.53H23.4755C26.2293 31.5369 28.1407 26.1011 28.3762 19.7919H34.5451V26.1102H34.5406ZM26.1568 2.46545L34.5406 10.8853V17.3264H28.3807C28.1678 10.9626 26.2519 5.47676 23.4755 2.46545H26.1568ZM2.45489 10.8807C5.49859 7.80575 9.42098 3.87558 10.9021 2.46545H13.6785C10.9066 5.47676 8.98617 10.9626 8.77329 17.3264H2.45489V10.8807ZM2.45489 19.7964H8.77782C9.00881 26.1056 10.9202 31.5414 13.6785 34.5345H10.6801L2.45489 26.2694V19.7919V19.7964Z" fill="black"/>
</g>
<defs>
<clipPath id="clip0_343_465">
<rect width="37" height="37" fill="white"/>
</clipPath>
</defs>
</svg>
