<svg width="32" height="40" viewBox="0 0 32 40" fill="none" xmlns="http://www.w3.org/2000/svg">
<g clip-path="url(#clip0_343_458)">
<path d="M25.7649 32.6749C25.7467 31.9296 25.7285 31.0745 25.7103 30.1966C25.7103 29.9771 25.7011 29.7577 25.6966 29.5336L19.0514 22.8669L17.3058 24.6182L22.8617 30.192H6.06177V32.6703H22.848L17.2966 38.2396L19.0423 39.9909L25.7741 33.2373C25.7695 33.0544 25.7649 32.8669 25.7604 32.6703L25.7649 32.6749Z" fill="black"/>
<path d="M24.7486 17.3571H7.36533C7.18302 17.3571 0 24.6319 0 24.6319V32.9721L2.4703 32.9172V25.6516C4.79932 23.2968 7.21037 20.8916 8.30879 19.8354H23.7231L29.5251 25.6562V32.9172L31.9954 32.9264V24.6319L24.7441 17.3571H24.7486Z" fill="black"/>
<path d="M19.4525 14.8788L23.3904 10.9099V3.96891L19.4525 0H12.5612C12.4609 0 8.55945 3.96891 8.55945 3.96891V10.9739L12.4335 14.8788H19.4525ZM11.0343 4.984C11.9914 4.0192 12.9395 3.06356 13.5365 2.47828H18.427L20.9201 4.98857V9.88112L18.427 12.3914H13.4636L11.0343 9.94513V4.984Z" fill="black"/>
</g>
<defs>
<clipPath id="clip0_343_458">
<rect width="32" height="40" fill="white"/>
</clipPath>
</defs>
</svg>
