<svg width="16" height="10" viewBox="0 0 16 10" fill="none" xmlns="http://www.w3.org/2000/svg">
<g clip-path="url(#clip0_21_388)">
<path d="M15.361 5.00634C15.361 5.00634 12.0639 9.39598 8 9.39598C3.9361 9.39598 0.638977 5.00634 0.638977 5.00634C0.638977 5.00634 3.9361 0.616699 8 0.616699C12.0639 0.616699 15.361 5.00634 15.361 5.00634Z" fill="white" stroke="#9B9B9B" stroke-opacity="0.5" stroke-linecap="round" stroke-linejoin="round"/>
<path d="M8 9.02579C10.3009 9.02579 12.1661 7.22609 12.1661 5.00606C12.1661 2.78602 10.3009 0.986328 8 0.986328C5.6991 0.986328 3.83386 2.78602 3.83386 5.00606C3.83386 7.22609 5.6991 9.02579 8 9.02579Z" fill="#9B9B9B" fill-opacity="0.5" stroke="#9B9B9B" stroke-opacity="0.5" stroke-linecap="round" stroke-linejoin="round"/>
<path d="M8.00002 6.83097C9.04459 6.83097 9.89139 6.01393 9.89139 5.00606C9.89139 3.99819 9.04459 3.18115 8.00002 3.18115C6.95544 3.18115 6.10864 3.99819 6.10864 5.00606C6.10864 6.01393 6.95544 6.83097 8.00002 6.83097Z" fill="white"/>
</g>
<defs>
<clipPath id="clip0_21_388">
<rect width="16" height="10" fill="white"/>
</clipPath>
</defs>
</svg>
